# xmcd CD database file
#
# Track frame offsets:
#	150
#	42930
#	67383
#	106040
#	136802
#	173137
#
# Disc length: 2556 seconds
#
# Revision: 0
# Processed by: cddbd v1.5.1PL2 Copyright (c) Steve Scherf et al.
# Submitted via: CDex 1.51
#
DISCID=4e09fa06
DTITLE=Guillermo Calliero - Dreams Become Reality
DYEAR=2006
DGENRE=Jazz
TTITLE0=Nocturno Nro. 2 (Chopin)
TTITLE1=Yendo a Brasil (F.Bergalli)
TTITLE2=Skylark (Carmichael-Mercier)
TTITLE3=Night has a Thousand Eyes (Bernier)
TTITLE4=Flamingo (E. Anderson)
TTITLE5=Volviendo de Brasil (F. Bergalli)
EXTD=YEAR: 2006
EXTT0=
EXTT1=
EXTT2=
EXTT3=
EXTT4=
EXTT5=
PLAYORDER=
